<svg width="100" height="200" xmlns="http://www.w3.org/2000/svg" viewBox="0 0 100 200">
<!-- d_y13 마법석 · footprint y100~200 · 2026-09-23 다시 그림: 보석 명암(그라데이션) 대신 평평한 면 둘 + 굵은 윤곽 + 밝은 모서리 한 줄 — 수정 셋이 넓적한 돌 위에(다른 그림과 같은 만화 결) -->
<ellipse cx="50" cy="188" rx="34" ry="7" fill="#000" opacity=".26"/><path d="M16,186 L22,168 L44,160 L72,162 L86,174 L84,188 Z" fill="#7b7488" stroke="#2b2118" stroke-width="2.5" stroke-linejoin="round" stroke-linecap="round"/><path d="M22,168 L44,160 L72,162 L86,174 L60,176 Z" fill="#9a93a8"/><path d="M22,168 L44,160 L72,162 L86,174 L60,176 Z" fill="none" stroke="#2b2118" stroke-width="1.8" stroke-linejoin="round" stroke-linecap="round"/><polygon points="26.0,172 21.8,143.2 28,132 29.2,143.2 34,172" fill="#b28cf2"/><polygon points="34,172 29.2,143.2 28,132 37.8,143.2 42.0,172" fill="#7d4fd0"/><polygon points="26.0,172 21.8,143.2 28,132 37.8,143.2 42.0,172" fill="none" stroke="#2b2118" stroke-width="2.5" stroke-linejoin="round" stroke-linecap="round"/><path d="M34,172 L29.2,143.2 L28,132" stroke="#2b2118" stroke-width="1.4" fill="none" opacity=".7"/><path d="M30.0,166 L26.4,147.2" stroke="#e3d2ff" stroke-width="2.6" stroke-linecap="round"/><polygon points="62.5,172 67.4,147.52 77,138 75.6,147.52 70,172" fill="#b28cf2"/><polygon points="70,172 75.6,147.52 77,138 82.4,147.52 77.5,172" fill="#7d4fd0"/><polygon points="62.5,172 67.4,147.52 77,138 82.4,147.52 77.5,172" fill="none" stroke="#2b2118" stroke-width="2.5" stroke-linejoin="round" stroke-linecap="round"/><path d="M70,172 L75.6,147.52 L77,138" stroke="#2b2118" stroke-width="1.4" fill="none" opacity=".7"/><path d="M66.5,166 L70.7,150.92000000000002" stroke="#e3d2ff" stroke-width="2.6" stroke-linecap="round"/><polygon points="40.0,174 40.7,114.96000000000001 53,92 52.8,114.96000000000001 52,174" fill="#b28cf2"/><polygon points="52,174 52.8,114.96000000000001 53,92 64.7,114.96000000000001 64.0,174" fill="#7d4fd0"/><polygon points="40.0,174 40.7,114.96000000000001 53,92 64.7,114.96000000000001 64.0,174" fill="none" stroke="#2b2118" stroke-width="2.5" stroke-linejoin="round" stroke-linecap="round"/><path d="M52,174 L52.8,114.96000000000001 L53,92" stroke="#2b2118" stroke-width="1.4" fill="none" opacity=".7"/><path d="M44.0,168 L44.6,123.16" stroke="#e3d2ff" stroke-width="2.6" stroke-linecap="round"/><g fill="#fff"><path d="M24,112 l2,-6 l2,6 l6,2 l-6,2 l-2,6 l-2,-6 l-6,-2z"/><path d="M80,128 l1.4,-4 l1.4,4 l4,1.4 l-4,1.4 l-1.4,4 l-1.4,-4 l-4,-1.4z"/></g><g transform="translate(18,190) scale(0.5)"><g fill="#4f7a2e" stroke="#2b2118" stroke-width="1.8" stroke-linejoin="round" stroke-linecap="round"><path d="M-10,0 l-4,-16 l8,3 l0,13z M-3,0 l0,-24 l6,5 l-2,19z M5,0 l3,-19 l5,7 l-4,12z M11,0 l7,-11 l2,7 l-6,4z"/></g><g fill="#86ad50"><path d="M-8,-2 l-1,-9 l2,1z M0,-3 l0,-15 l2,2z M7,-3 l2,-11 l1,3z"/></g></g><g transform="translate(84,190) scale(0.45)"><g fill="#4f7a2e" stroke="#2b2118" stroke-width="1.8" stroke-linejoin="round" stroke-linecap="round"><path d="M-10,0 l-4,-16 l8,3 l0,13z M-3,0 l0,-24 l6,5 l-2,19z M5,0 l3,-19 l5,7 l-4,12z M11,0 l7,-11 l2,7 l-6,4z"/></g><g fill="#86ad50"><path d="M-8,-2 l-1,-9 l2,1z M0,-3 l0,-15 l2,2z M7,-3 l2,-11 l1,3z"/></g></g>
</svg>
