<svg width="200" height="300" xmlns="http://www.w3.org/2000/svg" viewBox="0 0 200 300">
<!-- d_y10_w1 분수 물줄기 1/3 — 움직임 층. 몸통 d_y10_body 와 같은 viewBox 에 그대로 겹친다(투명 바탕) · 0.3초마다 번갈아 -->
<path d="M100,118 Q86,84 70,151" stroke="#86cbef" stroke-width="5" fill="none" stroke-linecap="round"/><path d="M100,118 Q86,84 70,151" stroke="#fff" stroke-width="1.8" fill="none" stroke-linecap="round" opacity=".8"/><path d="M100,118 Q114,84 130,151" stroke="#86cbef" stroke-width="5" fill="none" stroke-linecap="round"/><path d="M100,118 Q114,84 130,151" stroke="#fff" stroke-width="1.8" fill="none" stroke-linecap="round" opacity=".8"/><path d="M100,118 V93" stroke="#86cbef" stroke-width="5" stroke-linecap="round"/><path d="M100,116 V95" stroke="#fff" stroke-width="1.8" stroke-linecap="round"/><path d="M58,166 q-6,14 -9,64" stroke="#5fb3e0" stroke-width="4" fill="none" stroke-linecap="round" opacity=".9"/><path d="M58,166 q-6,14 -9,64" stroke="#fff" stroke-width="1.4" fill="none" stroke-linecap="round" opacity=".7"/><path d="M142,166 q6,14 9,64" stroke="#5fb3e0" stroke-width="4" fill="none" stroke-linecap="round" opacity=".9"/><path d="M142,166 q6,14 9,64" stroke="#fff" stroke-width="1.4" fill="none" stroke-linecap="round" opacity=".7"/><path d="M80,166 q-6,14 -9,64" stroke="#5fb3e0" stroke-width="4" fill="none" stroke-linecap="round" opacity=".9"/><path d="M80,166 q-6,14 -9,64" stroke="#fff" stroke-width="1.4" fill="none" stroke-linecap="round" opacity=".7"/><path d="M120,166 q6,14 9,64" stroke="#5fb3e0" stroke-width="4" fill="none" stroke-linecap="round" opacity=".9"/><path d="M120,166 q6,14 9,64" stroke="#fff" stroke-width="1.4" fill="none" stroke-linecap="round" opacity=".7"/><circle cx="63" cy="142" r="2.3" fill="#fff" opacity=".9"/><circle cx="76" cy="123" r="2.0" fill="#fff" opacity=".9"/><circle cx="115" cy="139" r="1.6" fill="#fff" opacity=".9"/><circle cx="53" cy="141" r="2.0" fill="#fff" opacity=".9"/><circle cx="126" cy="222" r="2.0" fill="#fff" opacity=".9"/><circle cx="122" cy="225" r="2.5" fill="#fff" opacity=".9"/><circle cx="140" cy="222" r="1.5" fill="#fff" opacity=".9"/><circle cx="104" cy="235" r="1.9" fill="#fff" opacity=".9"/><circle cx="72" cy="228" r="1.5" fill="#fff" opacity=".9"/><path d="M47,236 q8,-4 16,0 M133,236 q8,-4 16,0" stroke="#fff" stroke-width="1.8" fill="none" stroke-linecap="round"/>
</svg>
