<svg width="200" height="300" xmlns="http://www.w3.org/2000/svg" viewBox="0 0 200 300">
<!-- d_y19 큰 나무 B형(단풍) · footprint y100~300  · 2026-09-24 계절: 주소 뒤 #spring #summer #autumn #winter(없으면 지금 그림 그대로) — 잎 색 변수 l0~l3 · 겨울은 맨가지+눈 · 열매·꽃·땅 꽃잎/낙엽은 제철에만  · 2026-09-24 각진 그림자 쐐기 → 부드러운 타원(눈밭에서 회색 세모로 튀었다) -->
<style>.bare{display:none}#spring:target~g{--l0:#5a8a32;--l1:#74a63e;--l2:#b5d86a;--l3:#45702a}#summer:target~g{--l0:#3e6224;--l1:#4f7a2e;--l2:#86ad50;--l3:#2f4d1c}#autumn:target~g{--l0:#a5432a;--l1:#c9602e;--l2:#e9924a;--l3:#7a2e1e}#winter:target~g .cn,#winter:target~g .fr,#winter:target~g .bl,#winter:target~g .gp,#winter:target~g .gl{display:none}#winter:target~g .bare{display:inline}#spring:target~g .fr,#spring:target~g .gl{display:none}#summer:target~g .bl,#summer:target~g .gp,#summer:target~g .gl{display:none}#autumn:target~g .bl,#autumn:target~g .gp{display:none}</style><g id="spring"/><g id="summer"/><g id="autumn"/><g id="winter"/><g class="t">
<ellipse cx="124.0" cy="284.0" rx="64.2" ry="13.3" fill="#000" opacity=".16" transform="rotate(4.3 124.0 284.0)"/><ellipse cx="100" cy="282" rx="64" ry="16" fill="#000" opacity=".26"/><ellipse cx="154.4" cy="286.0" rx="43.3" ry="16.6" fill="#000" opacity=".14" transform="rotate(6.6 154.4 286.0)"/><path d="M71.4,286 Q84.6,276 89.0,270 L89.0,186 L111.0,186 L111.0,270 Q115.4,276 128.6,286 Z" fill="#6b4a2a" stroke="#2b2118" stroke-width="2.5" stroke-linejoin="round" stroke-linecap="round"/><path d="M102.2,272 L102.2,188 L111.0,186 L111.0,270 Q115.4,276 128.6,286 L107.7,286 Z" fill="#4a3018"/><path d="M94.5,264 L94.5,210 M98.9,268 L98.9,226" stroke="#4a3018" stroke-width="2" stroke-linecap="round"/><g class="bare"><path d="M100,188 Q91,158 100,128" fill="none" stroke="#2b2118" stroke-linecap="round" stroke-width="9.0"/><path d="M100,128 Q87,111 77,92" fill="none" stroke="#2b2118" stroke-linecap="round" stroke-width="6.5"/><path d="M77,92 Q65,85 52,82" fill="none" stroke="#2b2118" stroke-linecap="round" stroke-width="4.9"/><path d="M52,82 Q47,82 43,84" fill="none" stroke="#2b2118" stroke-linecap="round" stroke-width="4.0"/><path d="M52,82 Q49,75 48,67" fill="none" stroke="#2b2118" stroke-linecap="round" stroke-width="4.0"/><path d="M77,92 Q69,80 58,71" fill="none" stroke="#2b2118" stroke-linecap="round" stroke-width="4.9"/><path d="M58,71 Q52,71 46,70" fill="none" stroke="#2b2118" stroke-linecap="round" stroke-width="4.0"/><path d="M58,71 Q59,62 56,54" fill="none" stroke="#2b2118" stroke-linecap="round" stroke-width="4.0"/><path d="M77,92 Q82,79 82,66" fill="none" stroke="#2b2118" stroke-linecap="round" stroke-width="4.9"/><path d="M82,66 Q78,58 77,49" fill="none" stroke="#2b2118" stroke-linecap="round" stroke-width="4.0"/><path d="M82,66 Q90,61 95,54" fill="none" stroke="#2b2118" stroke-linecap="round" stroke-width="4.0"/><path d="M100,128 Q97,107 107,89" fill="none" stroke="#2b2118" stroke-linecap="round" stroke-width="6.5"/><path d="M107,89 Q101,77 98,63" fill="none" stroke="#2b2118" stroke-linecap="round" stroke-width="4.9"/><path d="M98,63 Q92,55 83,51" fill="none" stroke="#2b2118" stroke-linecap="round" stroke-width="4.0"/><path d="M98,63 Q99,54 104,46" fill="none" stroke="#2b2118" stroke-linecap="round" stroke-width="4.0"/><path d="M107,89 Q109,78 114,67" fill="none" stroke="#2b2118" stroke-linecap="round" stroke-width="4.9"/><path d="M114,67 Q114,60 110,53" fill="none" stroke="#2b2118" stroke-linecap="round" stroke-width="4.0"/><path d="M114,67 Q121,64 127,58" fill="none" stroke="#2b2118" stroke-linecap="round" stroke-width="4.0"/><path d="M107,89 Q121,85 129,72" fill="none" stroke="#2b2118" stroke-linecap="round" stroke-width="4.9"/><path d="M129,72 Q131,63 133,53" fill="none" stroke="#2b2118" stroke-linecap="round" stroke-width="4.0"/><path d="M129,72 Q139,71 149,74" fill="none" stroke="#2b2118" stroke-linecap="round" stroke-width="4.0"/><path d="M100,128 Q116,118 123,102" fill="none" stroke="#2b2118" stroke-linecap="round" stroke-width="6.5"/><path d="M123,102 Q122,90 128,80" fill="none" stroke="#2b2118" stroke-linecap="round" stroke-width="4.9"/><path d="M128,80 Q125,73 124,67" fill="none" stroke="#2b2118" stroke-linecap="round" stroke-width="4.0"/><path d="M128,80 Q132,74 139,70" fill="none" stroke="#2b2118" stroke-linecap="round" stroke-width="4.0"/><path d="M123,102 Q132,95 136,84" fill="none" stroke="#2b2118" stroke-linecap="round" stroke-width="4.9"/><path d="M136,84 Q138,77 136,70" fill="none" stroke="#2b2118" stroke-linecap="round" stroke-width="4.0"/><path d="M136,84 Q143,82 149,78" fill="none" stroke="#2b2118" stroke-linecap="round" stroke-width="4.0"/><path d="M123,102 Q133,97 144,98" fill="none" stroke="#2b2118" stroke-linecap="round" stroke-width="4.9"/><path d="M144,98 Q148,93 155,90" fill="none" stroke="#2b2118" stroke-linecap="round" stroke-width="4.0"/><path d="M144,98 Q148,93 153,88" fill="none" stroke="#2b2118" stroke-linecap="round" stroke-width="4.0"/><path d="M100,188 Q89,167 71,150" fill="none" stroke="#2b2118" stroke-linecap="round" stroke-width="8.4"/><path d="M71,150 Q57,145 42,142" fill="none" stroke="#2b2118" stroke-linecap="round" stroke-width="6.1"/><path d="M42,142 Q35,148 26,148" fill="none" stroke="#2b2118" stroke-linecap="round" stroke-width="4.7"/><path d="M26,148 Q21,152 19,158" fill="none" stroke="#2b2118" stroke-linecap="round" stroke-width="3.8"/><path d="M26,148 Q21,145 16,144" fill="none" stroke="#2b2118" stroke-linecap="round" stroke-width="3.8"/><path d="M42,142 Q33,140 23,140" fill="none" stroke="#2b2118" stroke-linecap="round" stroke-width="4.7"/><path d="M23,140 Q17,145 11,148" fill="none" stroke="#2b2118" stroke-linecap="round" stroke-width="3.8"/><path d="M23,140 Q18,135 11,132" fill="none" stroke="#2b2118" stroke-linecap="round" stroke-width="3.8"/><path d="M42,142 Q37,135 31,128" fill="none" stroke="#2b2118" stroke-linecap="round" stroke-width="4.7"/><path d="M31,128 Q25,128 19,126" fill="none" stroke="#2b2118" stroke-linecap="round" stroke-width="3.8"/><path d="M31,128 Q32,123 29,117" fill="none" stroke="#2b2118" stroke-linecap="round" stroke-width="3.8"/><path d="M71,150 Q63,135 49,125" fill="none" stroke="#2b2118" stroke-linecap="round" stroke-width="6.1"/><path d="M49,125 Q38,127 27,122" fill="none" stroke="#2b2118" stroke-linecap="round" stroke-width="4.7"/><path d="M27,122 Q21,125 14,128" fill="none" stroke="#2b2118" stroke-linecap="round" stroke-width="3.8"/><path d="M27,122 Q23,116 16,114" fill="none" stroke="#2b2118" stroke-linecap="round" stroke-width="3.8"/><path d="M49,125 Q46,114 36,107" fill="none" stroke="#2b2118" stroke-linecap="round" stroke-width="4.7"/><path d="M36,107 Q30,105 24,103" fill="none" stroke="#2b2118" stroke-linecap="round" stroke-width="3.8"/><path d="M36,107 Q33,100 35,92" fill="none" stroke="#2b2118" stroke-linecap="round" stroke-width="3.8"/><path d="M49,125 Q42,115 43,103" fill="none" stroke="#2b2118" stroke-linecap="round" stroke-width="4.7"/><path d="M43,103 Q36,100 31,95" fill="none" stroke="#2b2118" stroke-linecap="round" stroke-width="3.8"/><path d="M43,103 Q44,95 50,89" fill="none" stroke="#2b2118" stroke-linecap="round" stroke-width="3.8"/><path d="M71,150 Q69,135 74,121" fill="none" stroke="#2b2118" stroke-linecap="round" stroke-width="6.1"/><path d="M74,121 Q70,112 65,103" fill="none" stroke="#2b2118" stroke-linecap="round" stroke-width="4.7"/><path d="M65,103 Q58,100 52,97" fill="none" stroke="#2b2118" stroke-linecap="round" stroke-width="3.8"/><path d="M65,103 Q65,97 65,90" fill="none" stroke="#2b2118" stroke-linecap="round" stroke-width="3.8"/><path d="M74,121 Q72,111 73,100" fill="none" stroke="#2b2118" stroke-linecap="round" stroke-width="4.7"/><path d="M73,100 Q67,96 63,91" fill="none" stroke="#2b2118" stroke-linecap="round" stroke-width="3.8"/><path d="M73,100 Q74,94 77,88" fill="none" stroke="#2b2118" stroke-linecap="round" stroke-width="3.8"/><path d="M74,121 Q80,113 89,107" fill="none" stroke="#2b2118" stroke-linecap="round" stroke-width="4.7"/><path d="M89,107 Q88,100 91,94" fill="none" stroke="#2b2118" stroke-linecap="round" stroke-width="3.8"/><path d="M89,107 Q96,107 102,104" fill="none" stroke="#2b2118" stroke-linecap="round" stroke-width="3.8"/><path d="M100,188 Q116,169 129,148" fill="none" stroke="#2b2118" stroke-linecap="round" stroke-width="8.4"/><path d="M129,148 Q132,130 124,114" fill="none" stroke="#2b2118" stroke-linecap="round" stroke-width="6.1"/><path d="M124,114 Q113,108 107,97" fill="none" stroke="#2b2118" stroke-linecap="round" stroke-width="4.7"/><path d="M107,97 Q104,96 100,98" fill="none" stroke="#2b2118" stroke-linecap="round" stroke-width="3.8"/><path d="M107,97 Q110,91 109,86" fill="none" stroke="#2b2118" stroke-linecap="round" stroke-width="3.8"/><path d="M124,114 Q126,103 122,93" fill="none" stroke="#2b2118" stroke-linecap="round" stroke-width="4.7"/><path d="M122,93 Q119,86 115,81" fill="none" stroke="#2b2118" stroke-linecap="round" stroke-width="3.8"/><path d="M122,93 Q124,86 128,80" fill="none" stroke="#2b2118" stroke-linecap="round" stroke-width="3.8"/><path d="M124,114 Q125,102 131,91" fill="none" stroke="#2b2118" stroke-linecap="round" stroke-width="4.7"/><path d="M131,91 Q131,84 127,78" fill="none" stroke="#2b2118" stroke-linecap="round" stroke-width="3.8"/><path d="M131,91 Q134,85 141,81" fill="none" stroke="#2b2118" stroke-linecap="round" stroke-width="3.8"/><path d="M129,148 Q143,137 149,120" fill="none" stroke="#2b2118" stroke-linecap="round" stroke-width="6.1"/><path d="M149,120 Q151,111 152,101" fill="none" stroke="#2b2118" stroke-linecap="round" stroke-width="4.7"/><path d="M152,101 Q147,95 144,89" fill="none" stroke="#2b2118" stroke-linecap="round" stroke-width="3.8"/><path d="M152,101 Q157,96 162,91" fill="none" stroke="#2b2118" stroke-linecap="round" stroke-width="3.8"/><path d="M149,120 Q155,112 160,103" fill="none" stroke="#2b2118" stroke-linecap="round" stroke-width="4.7"/><path d="M160,103 Q159,97 161,91" fill="none" stroke="#2b2118" stroke-linecap="round" stroke-width="3.8"/><path d="M160,103 Q165,98 171,97" fill="none" stroke="#2b2118" stroke-linecap="round" stroke-width="3.8"/><path d="M149,120 Q160,117 171,113" fill="none" stroke="#2b2118" stroke-linecap="round" stroke-width="4.7"/><path d="M171,113 Q178,108 183,101" fill="none" stroke="#2b2118" stroke-linecap="round" stroke-width="3.8"/><path d="M171,113 Q175,106 178,99" fill="none" stroke="#2b2118" stroke-linecap="round" stroke-width="3.8"/><path d="M129,148 Q147,145 159,131" fill="none" stroke="#2b2118" stroke-linecap="round" stroke-width="6.1"/><path d="M159,131 Q163,120 169,109" fill="none" stroke="#2b2118" stroke-linecap="round" stroke-width="4.7"/><path d="M169,109 Q164,101 165,92" fill="none" stroke="#2b2118" stroke-linecap="round" stroke-width="3.8"/><path d="M169,109 Q177,107 183,103" fill="none" stroke="#2b2118" stroke-linecap="round" stroke-width="3.8"/><path d="M159,131 Q169,127 178,123" fill="none" stroke="#2b2118" stroke-linecap="round" stroke-width="4.7"/><path d="M178,123 Q180,115 184,109" fill="none" stroke="#2b2118" stroke-linecap="round" stroke-width="3.8"/><path d="M178,123 Q185,124 193,123" fill="none" stroke="#2b2118" stroke-linecap="round" stroke-width="3.8"/><path d="M159,131 Q171,131 183,134" fill="none" stroke="#2b2118" stroke-linecap="round" stroke-width="4.7"/><path d="M183,134 Q188,128 197,127" fill="none" stroke="#2b2118" stroke-linecap="round" stroke-width="3.8"/><path d="M183,134 Q189,131 196,127" fill="none" stroke="#2b2118" stroke-linecap="round" stroke-width="3.8"/><path d="M100,188 Q97,173 100,158" fill="none" stroke="#2b2118" stroke-linecap="round" stroke-width="7.0"/><path d="M100,158 Q93,152 90,143" fill="none" stroke="#2b2118" stroke-linecap="round" stroke-width="5.2"/><path d="M90,143 Q85,141 80,139" fill="none" stroke="#2b2118" stroke-linecap="round" stroke-width="4.2"/><path d="M80,139 Q77,139 73,141" fill="none" stroke="#2b2118" stroke-linecap="round" stroke-width="3.5"/><path d="M80,139 Q78,137 77,134" fill="none" stroke="#2b2118" stroke-linecap="round" stroke-width="3.5"/><path d="M90,143 Q88,137 84,134" fill="none" stroke="#2b2118" stroke-linecap="round" stroke-width="4.2"/><path d="M84,134 Q80,132 77,131" fill="none" stroke="#2b2118" stroke-linecap="round" stroke-width="3.5"/><path d="M84,134 Q83,131 83,127" fill="none" stroke="#2b2118" stroke-linecap="round" stroke-width="3.5"/><path d="M90,143 Q91,136 88,131" fill="none" stroke="#2b2118" stroke-linecap="round" stroke-width="4.2"/><path d="M88,131 Q86,128 84,124" fill="none" stroke="#2b2118" stroke-linecap="round" stroke-width="3.5"/><path d="M88,131 Q90,127 92,124" fill="none" stroke="#2b2118" stroke-linecap="round" stroke-width="3.5"/><path d="M100,158 Q101,148 101,138" fill="none" stroke="#2b2118" stroke-linecap="round" stroke-width="5.2"/><path d="M101,138 Q95,134 92,128" fill="none" stroke="#2b2118" stroke-linecap="round" stroke-width="4.2"/><path d="M92,128 Q89,125 84,125" fill="none" stroke="#2b2118" stroke-linecap="round" stroke-width="3.5"/><path d="M92,128 Q90,123 90,119" fill="none" stroke="#2b2118" stroke-linecap="round" stroke-width="3.5"/><path d="M101,138 Q101,131 101,125" fill="none" stroke="#2b2118" stroke-linecap="round" stroke-width="4.2"/><path d="M101,125 Q101,121 98,118" fill="none" stroke="#2b2118" stroke-linecap="round" stroke-width="3.5"/><path d="M101,125 Q104,123 107,120" fill="none" stroke="#2b2118" stroke-linecap="round" stroke-width="3.5"/><path d="M101,138 Q102,131 107,126" fill="none" stroke="#2b2118" stroke-linecap="round" stroke-width="4.2"/><path d="M107,126 Q109,122 107,118" fill="none" stroke="#2b2118" stroke-linecap="round" stroke-width="3.5"/><path d="M107,126 Q111,124 115,122" fill="none" stroke="#2b2118" stroke-linecap="round" stroke-width="3.5"/><path d="M100,158 Q108,151 114,142" fill="none" stroke="#2b2118" stroke-linecap="round" stroke-width="5.2"/><path d="M114,142 Q115,135 116,128" fill="none" stroke="#2b2118" stroke-linecap="round" stroke-width="4.2"/><path d="M116,128 Q113,124 110,120" fill="none" stroke="#2b2118" stroke-linecap="round" stroke-width="3.5"/><path d="M116,128 Q119,124 122,120" fill="none" stroke="#2b2118" stroke-linecap="round" stroke-width="3.5"/><path d="M114,142 Q119,137 122,130" fill="none" stroke="#2b2118" stroke-linecap="round" stroke-width="4.2"/><path d="M122,130 Q122,126 122,121" fill="none" stroke="#2b2118" stroke-linecap="round" stroke-width="3.5"/><path d="M122,130 Q127,130 131,127" fill="none" stroke="#2b2118" stroke-linecap="round" stroke-width="3.5"/><path d="M114,142 Q121,143 127,139" fill="none" stroke="#2b2118" stroke-linecap="round" stroke-width="4.2"/><path d="M127,139 Q130,136 133,133" fill="none" stroke="#2b2118" stroke-linecap="round" stroke-width="3.5"/><path d="M127,139 Q129,135 132,132" fill="none" stroke="#2b2118" stroke-linecap="round" stroke-width="3.5"/><path d="M100,188 Q91,158 100,128" fill="none" stroke="#6b4a2a" stroke-linecap="round" stroke-width="6.6"/><path d="M100,128 Q87,111 77,92" fill="none" stroke="#6b4a2a" stroke-linecap="round" stroke-width="4.1"/><path d="M77,92 Q65,85 52,82" fill="none" stroke="#6b4a2a" stroke-linecap="round" stroke-width="2.5"/><path d="M52,82 Q47,82 43,84" fill="none" stroke="#6b4a2a" stroke-linecap="round" stroke-width="1.6"/><path d="M52,82 Q49,75 48,67" fill="none" stroke="#6b4a2a" stroke-linecap="round" stroke-width="1.6"/><path d="M77,92 Q69,80 58,71" fill="none" stroke="#6b4a2a" stroke-linecap="round" stroke-width="2.5"/><path d="M58,71 Q52,71 46,70" fill="none" stroke="#6b4a2a" stroke-linecap="round" stroke-width="1.6"/><path d="M58,71 Q59,62 56,54" fill="none" stroke="#6b4a2a" stroke-linecap="round" stroke-width="1.6"/><path d="M77,92 Q82,79 82,66" fill="none" stroke="#6b4a2a" stroke-linecap="round" stroke-width="2.5"/><path d="M82,66 Q78,58 77,49" fill="none" stroke="#6b4a2a" stroke-linecap="round" stroke-width="1.6"/><path d="M82,66 Q90,61 95,54" fill="none" stroke="#6b4a2a" stroke-linecap="round" stroke-width="1.6"/><path d="M100,128 Q97,107 107,89" fill="none" stroke="#6b4a2a" stroke-linecap="round" stroke-width="4.1"/><path d="M107,89 Q101,77 98,63" fill="none" stroke="#6b4a2a" stroke-linecap="round" stroke-width="2.5"/><path d="M98,63 Q92,55 83,51" fill="none" stroke="#6b4a2a" stroke-linecap="round" stroke-width="1.6"/><path d="M98,63 Q99,54 104,46" fill="none" stroke="#6b4a2a" stroke-linecap="round" stroke-width="1.6"/><path d="M107,89 Q109,78 114,67" fill="none" stroke="#6b4a2a" stroke-linecap="round" stroke-width="2.5"/><path d="M114,67 Q114,60 110,53" fill="none" stroke="#6b4a2a" stroke-linecap="round" stroke-width="1.6"/><path d="M114,67 Q121,64 127,58" fill="none" stroke="#6b4a2a" stroke-linecap="round" stroke-width="1.6"/><path d="M107,89 Q121,85 129,72" fill="none" stroke="#6b4a2a" stroke-linecap="round" stroke-width="2.5"/><path d="M129,72 Q131,63 133,53" fill="none" stroke="#6b4a2a" stroke-linecap="round" stroke-width="1.6"/><path d="M129,72 Q139,71 149,74" fill="none" stroke="#6b4a2a" stroke-linecap="round" stroke-width="1.6"/><path d="M100,128 Q116,118 123,102" fill="none" stroke="#6b4a2a" stroke-linecap="round" stroke-width="4.1"/><path d="M123,102 Q122,90 128,80" fill="none" stroke="#6b4a2a" stroke-linecap="round" stroke-width="2.5"/><path d="M128,80 Q125,73 124,67" fill="none" stroke="#6b4a2a" stroke-linecap="round" stroke-width="1.6"/><path d="M128,80 Q132,74 139,70" fill="none" stroke="#6b4a2a" stroke-linecap="round" stroke-width="1.6"/><path d="M123,102 Q132,95 136,84" fill="none" stroke="#6b4a2a" stroke-linecap="round" stroke-width="2.5"/><path d="M136,84 Q138,77 136,70" fill="none" stroke="#6b4a2a" stroke-linecap="round" stroke-width="1.6"/><path d="M136,84 Q143,82 149,78" fill="none" stroke="#6b4a2a" stroke-linecap="round" stroke-width="1.6"/><path d="M123,102 Q133,97 144,98" fill="none" stroke="#6b4a2a" stroke-linecap="round" stroke-width="2.5"/><path d="M144,98 Q148,93 155,90" fill="none" stroke="#6b4a2a" stroke-linecap="round" stroke-width="1.6"/><path d="M144,98 Q148,93 153,88" fill="none" stroke="#6b4a2a" stroke-linecap="round" stroke-width="1.6"/><path d="M100,188 Q89,167 71,150" fill="none" stroke="#6b4a2a" stroke-linecap="round" stroke-width="6.0"/><path d="M71,150 Q57,145 42,142" fill="none" stroke="#6b4a2a" stroke-linecap="round" stroke-width="3.7"/><path d="M42,142 Q35,148 26,148" fill="none" stroke="#6b4a2a" stroke-linecap="round" stroke-width="2.3"/><path d="M26,148 Q21,152 19,158" fill="none" stroke="#6b4a2a" stroke-linecap="round" stroke-width="1.4"/><path d="M26,148 Q21,145 16,144" fill="none" stroke="#6b4a2a" stroke-linecap="round" stroke-width="1.4"/><path d="M42,142 Q33,140 23,140" fill="none" stroke="#6b4a2a" stroke-linecap="round" stroke-width="2.3"/><path d="M23,140 Q17,145 11,148" fill="none" stroke="#6b4a2a" stroke-linecap="round" stroke-width="1.4"/><path d="M23,140 Q18,135 11,132" fill="none" stroke="#6b4a2a" stroke-linecap="round" stroke-width="1.4"/><path d="M42,142 Q37,135 31,128" fill="none" stroke="#6b4a2a" stroke-linecap="round" stroke-width="2.3"/><path d="M31,128 Q25,128 19,126" fill="none" stroke="#6b4a2a" stroke-linecap="round" stroke-width="1.4"/><path d="M31,128 Q32,123 29,117" fill="none" stroke="#6b4a2a" stroke-linecap="round" stroke-width="1.4"/><path d="M71,150 Q63,135 49,125" fill="none" stroke="#6b4a2a" stroke-linecap="round" stroke-width="3.7"/><path d="M49,125 Q38,127 27,122" fill="none" stroke="#6b4a2a" stroke-linecap="round" stroke-width="2.3"/><path d="M27,122 Q21,125 14,128" fill="none" stroke="#6b4a2a" stroke-linecap="round" stroke-width="1.4"/><path d="M27,122 Q23,116 16,114" fill="none" stroke="#6b4a2a" stroke-linecap="round" stroke-width="1.4"/><path d="M49,125 Q46,114 36,107" fill="none" stroke="#6b4a2a" stroke-linecap="round" stroke-width="2.3"/><path d="M36,107 Q30,105 24,103" fill="none" stroke="#6b4a2a" stroke-linecap="round" stroke-width="1.4"/><path d="M36,107 Q33,100 35,92" fill="none" stroke="#6b4a2a" stroke-linecap="round" stroke-width="1.4"/><path d="M49,125 Q42,115 43,103" fill="none" stroke="#6b4a2a" stroke-linecap="round" stroke-width="2.3"/><path d="M43,103 Q36,100 31,95" fill="none" stroke="#6b4a2a" stroke-linecap="round" stroke-width="1.4"/><path d="M43,103 Q44,95 50,89" fill="none" stroke="#6b4a2a" stroke-linecap="round" stroke-width="1.4"/><path d="M71,150 Q69,135 74,121" fill="none" stroke="#6b4a2a" stroke-linecap="round" stroke-width="3.7"/><path d="M74,121 Q70,112 65,103" fill="none" stroke="#6b4a2a" stroke-linecap="round" stroke-width="2.3"/><path d="M65,103 Q58,100 52,97" fill="none" stroke="#6b4a2a" stroke-linecap="round" stroke-width="1.4"/><path d="M65,103 Q65,97 65,90" fill="none" stroke="#6b4a2a" stroke-linecap="round" stroke-width="1.4"/><path d="M74,121 Q72,111 73,100" fill="none" stroke="#6b4a2a" stroke-linecap="round" stroke-width="2.3"/><path d="M73,100 Q67,96 63,91" fill="none" stroke="#6b4a2a" stroke-linecap="round" stroke-width="1.4"/><path d="M73,100 Q74,94 77,88" fill="none" stroke="#6b4a2a" stroke-linecap="round" stroke-width="1.4"/><path d="M74,121 Q80,113 89,107" fill="none" stroke="#6b4a2a" stroke-linecap="round" stroke-width="2.3"/><path d="M89,107 Q88,100 91,94" fill="none" stroke="#6b4a2a" stroke-linecap="round" stroke-width="1.4"/><path d="M89,107 Q96,107 102,104" fill="none" stroke="#6b4a2a" stroke-linecap="round" stroke-width="1.4"/><path d="M100,188 Q116,169 129,148" fill="none" stroke="#6b4a2a" stroke-linecap="round" stroke-width="6.0"/><path d="M129,148 Q132,130 124,114" fill="none" stroke="#6b4a2a" stroke-linecap="round" stroke-width="3.7"/><path d="M124,114 Q113,108 107,97" fill="none" stroke="#6b4a2a" stroke-linecap="round" stroke-width="2.3"/><path d="M107,97 Q104,96 100,98" fill="none" stroke="#6b4a2a" stroke-linecap="round" stroke-width="1.4"/><path d="M107,97 Q110,91 109,86" fill="none" stroke="#6b4a2a" stroke-linecap="round" stroke-width="1.4"/><path d="M124,114 Q126,103 122,93" fill="none" stroke="#6b4a2a" stroke-linecap="round" stroke-width="2.3"/><path d="M122,93 Q119,86 115,81" fill="none" stroke="#6b4a2a" stroke-linecap="round" stroke-width="1.4"/><path d="M122,93 Q124,86 128,80" fill="none" stroke="#6b4a2a" stroke-linecap="round" stroke-width="1.4"/><path d="M124,114 Q125,102 131,91" fill="none" stroke="#6b4a2a" stroke-linecap="round" stroke-width="2.3"/><path d="M131,91 Q131,84 127,78" fill="none" stroke="#6b4a2a" stroke-linecap="round" stroke-width="1.4"/><path d="M131,91 Q134,85 141,81" fill="none" stroke="#6b4a2a" stroke-linecap="round" stroke-width="1.4"/><path d="M129,148 Q143,137 149,120" fill="none" stroke="#6b4a2a" stroke-linecap="round" stroke-width="3.7"/><path d="M149,120 Q151,111 152,101" fill="none" stroke="#6b4a2a" stroke-linecap="round" stroke-width="2.3"/><path d="M152,101 Q147,95 144,89" fill="none" stroke="#6b4a2a" stroke-linecap="round" stroke-width="1.4"/><path d="M152,101 Q157,96 162,91" fill="none" stroke="#6b4a2a" stroke-linecap="round" stroke-width="1.4"/><path d="M149,120 Q155,112 160,103" fill="none" stroke="#6b4a2a" stroke-linecap="round" stroke-width="2.3"/><path d="M160,103 Q159,97 161,91" fill="none" stroke="#6b4a2a" stroke-linecap="round" stroke-width="1.4"/><path d="M160,103 Q165,98 171,97" fill="none" stroke="#6b4a2a" stroke-linecap="round" stroke-width="1.4"/><path d="M149,120 Q160,117 171,113" fill="none" stroke="#6b4a2a" stroke-linecap="round" stroke-width="2.3"/><path d="M171,113 Q178,108 183,101" fill="none" stroke="#6b4a2a" stroke-linecap="round" stroke-width="1.4"/><path d="M171,113 Q175,106 178,99" fill="none" stroke="#6b4a2a" stroke-linecap="round" stroke-width="1.4"/><path d="M129,148 Q147,145 159,131" fill="none" stroke="#6b4a2a" stroke-linecap="round" stroke-width="3.7"/><path d="M159,131 Q163,120 169,109" fill="none" stroke="#6b4a2a" stroke-linecap="round" stroke-width="2.3"/><path d="M169,109 Q164,101 165,92" fill="none" stroke="#6b4a2a" stroke-linecap="round" stroke-width="1.4"/><path d="M169,109 Q177,107 183,103" fill="none" stroke="#6b4a2a" stroke-linecap="round" stroke-width="1.4"/><path d="M159,131 Q169,127 178,123" fill="none" stroke="#6b4a2a" stroke-linecap="round" stroke-width="2.3"/><path d="M178,123 Q180,115 184,109" fill="none" stroke="#6b4a2a" stroke-linecap="round" stroke-width="1.4"/><path d="M178,123 Q185,124 193,123" fill="none" stroke="#6b4a2a" stroke-linecap="round" stroke-width="1.4"/><path d="M159,131 Q171,131 183,134" fill="none" stroke="#6b4a2a" stroke-linecap="round" stroke-width="2.3"/><path d="M183,134 Q188,128 197,127" fill="none" stroke="#6b4a2a" stroke-linecap="round" stroke-width="1.4"/><path d="M183,134 Q189,131 196,127" fill="none" stroke="#6b4a2a" stroke-linecap="round" stroke-width="1.4"/><path d="M100,188 Q97,173 100,158" fill="none" stroke="#6b4a2a" stroke-linecap="round" stroke-width="4.6"/><path d="M100,158 Q93,152 90,143" fill="none" stroke="#6b4a2a" stroke-linecap="round" stroke-width="2.8"/><path d="M90,143 Q85,141 80,139" fill="none" stroke="#6b4a2a" stroke-linecap="round" stroke-width="1.8"/><path d="M80,139 Q77,139 73,141" fill="none" stroke="#6b4a2a" stroke-linecap="round" stroke-width="1.1"/><path d="M80,139 Q78,137 77,134" fill="none" stroke="#6b4a2a" stroke-linecap="round" stroke-width="1.1"/><path d="M90,143 Q88,137 84,134" fill="none" stroke="#6b4a2a" stroke-linecap="round" stroke-width="1.8"/><path d="M84,134 Q80,132 77,131" fill="none" stroke="#6b4a2a" stroke-linecap="round" stroke-width="1.1"/><path d="M84,134 Q83,131 83,127" fill="none" stroke="#6b4a2a" stroke-linecap="round" stroke-width="1.1"/><path d="M90,143 Q91,136 88,131" fill="none" stroke="#6b4a2a" stroke-linecap="round" stroke-width="1.8"/><path d="M88,131 Q86,128 84,124" fill="none" stroke="#6b4a2a" stroke-linecap="round" stroke-width="1.1"/><path d="M88,131 Q90,127 92,124" fill="none" stroke="#6b4a2a" stroke-linecap="round" stroke-width="1.1"/><path d="M100,158 Q101,148 101,138" fill="none" stroke="#6b4a2a" stroke-linecap="round" stroke-width="2.8"/><path d="M101,138 Q95,134 92,128" fill="none" stroke="#6b4a2a" stroke-linecap="round" stroke-width="1.8"/><path d="M92,128 Q89,125 84,125" fill="none" stroke="#6b4a2a" stroke-linecap="round" stroke-width="1.1"/><path d="M92,128 Q90,123 90,119" fill="none" stroke="#6b4a2a" stroke-linecap="round" stroke-width="1.1"/><path d="M101,138 Q101,131 101,125" fill="none" stroke="#6b4a2a" stroke-linecap="round" stroke-width="1.8"/><path d="M101,125 Q101,121 98,118" fill="none" stroke="#6b4a2a" stroke-linecap="round" stroke-width="1.1"/><path d="M101,125 Q104,123 107,120" fill="none" stroke="#6b4a2a" stroke-linecap="round" stroke-width="1.1"/><path d="M101,138 Q102,131 107,126" fill="none" stroke="#6b4a2a" stroke-linecap="round" stroke-width="1.8"/><path d="M107,126 Q109,122 107,118" fill="none" stroke="#6b4a2a" stroke-linecap="round" stroke-width="1.1"/><path d="M107,126 Q111,124 115,122" fill="none" stroke="#6b4a2a" stroke-linecap="round" stroke-width="1.1"/><path d="M100,158 Q108,151 114,142" fill="none" stroke="#6b4a2a" stroke-linecap="round" stroke-width="2.8"/><path d="M114,142 Q115,135 116,128" fill="none" stroke="#6b4a2a" stroke-linecap="round" stroke-width="1.8"/><path d="M116,128 Q113,124 110,120" fill="none" stroke="#6b4a2a" stroke-linecap="round" stroke-width="1.1"/><path d="M116,128 Q119,124 122,120" fill="none" stroke="#6b4a2a" stroke-linecap="round" stroke-width="1.1"/><path d="M114,142 Q119,137 122,130" fill="none" stroke="#6b4a2a" stroke-linecap="round" stroke-width="1.8"/><path d="M122,130 Q122,126 122,121" fill="none" stroke="#6b4a2a" stroke-linecap="round" stroke-width="1.1"/><path d="M122,130 Q127,130 131,127" fill="none" stroke="#6b4a2a" stroke-linecap="round" stroke-width="1.1"/><path d="M114,142 Q121,143 127,139" fill="none" stroke="#6b4a2a" stroke-linecap="round" stroke-width="1.8"/><path d="M127,139 Q130,136 133,133" fill="none" stroke="#6b4a2a" stroke-linecap="round" stroke-width="1.1"/><path d="M127,139 Q129,135 132,132" fill="none" stroke="#6b4a2a" stroke-linecap="round" stroke-width="1.1"/><path d="M100,126 Q87,109 77,90" fill="none" stroke="#fbfdff" stroke-linecap="round" stroke-width="2.5"/><path d="M77,91 Q65,84 52,81" fill="none" stroke="#fbfdff" stroke-linecap="round" stroke-width="1.6"/><path d="M77,91 Q69,79 58,70" fill="none" stroke="#fbfdff" stroke-linecap="round" stroke-width="1.6"/><path d="M107,88 Q121,83 129,71" fill="none" stroke="#fbfdff" stroke-linecap="round" stroke-width="1.6"/><path d="M100,126 Q116,116 123,100" fill="none" stroke="#fbfdff" stroke-linecap="round" stroke-width="2.5"/><path d="M123,100 Q132,94 136,83" fill="none" stroke="#fbfdff" stroke-linecap="round" stroke-width="1.6"/><path d="M123,100 Q133,96 144,97" fill="none" stroke="#fbfdff" stroke-linecap="round" stroke-width="1.6"/><path d="M100,185 Q89,164 71,147" fill="none" stroke="#fbfdff" stroke-linecap="round" stroke-width="3.7"/><path d="M71,148 Q57,143 42,140" fill="none" stroke="#fbfdff" stroke-linecap="round" stroke-width="2.3"/><path d="M42,141 Q35,147 26,147" fill="none" stroke="#fbfdff" stroke-linecap="round" stroke-width="1.4"/><path d="M42,141 Q33,139 23,139" fill="none" stroke="#fbfdff" stroke-linecap="round" stroke-width="1.4"/><path d="M42,141 Q37,134 31,127" fill="none" stroke="#fbfdff" stroke-linecap="round" stroke-width="1.4"/><path d="M71,148 Q63,133 49,124" fill="none" stroke="#fbfdff" stroke-linecap="round" stroke-width="2.3"/><path d="M49,124 Q38,126 27,121" fill="none" stroke="#fbfdff" stroke-linecap="round" stroke-width="1.4"/><path d="M49,124 Q46,113 36,106" fill="none" stroke="#fbfdff" stroke-linecap="round" stroke-width="1.4"/><path d="M74,120 Q70,111 65,102" fill="none" stroke="#fbfdff" stroke-linecap="round" stroke-width="1.4"/><path d="M74,120 Q80,112 89,106" fill="none" stroke="#fbfdff" stroke-linecap="round" stroke-width="1.4"/><path d="M100,185 Q116,167 129,145" fill="none" stroke="#fbfdff" stroke-linecap="round" stroke-width="3.7"/><path d="M124,113 Q113,107 107,96" fill="none" stroke="#fbfdff" stroke-linecap="round" stroke-width="1.4"/><path d="M129,146 Q143,136 149,119" fill="none" stroke="#fbfdff" stroke-linecap="round" stroke-width="2.3"/><path d="M149,119 Q155,111 160,102" fill="none" stroke="#fbfdff" stroke-linecap="round" stroke-width="1.4"/><path d="M149,119 Q160,116 171,111" fill="none" stroke="#fbfdff" stroke-linecap="round" stroke-width="1.4"/><path d="M129,146 Q147,143 159,130" fill="none" stroke="#fbfdff" stroke-linecap="round" stroke-width="2.3"/><path d="M159,130 Q163,119 169,108" fill="none" stroke="#fbfdff" stroke-linecap="round" stroke-width="1.4"/><path d="M159,130 Q169,125 178,122" fill="none" stroke="#fbfdff" stroke-linecap="round" stroke-width="1.4"/><path d="M159,130 Q171,130 183,133" fill="none" stroke="#fbfdff" stroke-linecap="round" stroke-width="1.4"/><path d="M100,156 Q93,151 90,142" fill="none" stroke="#fbfdff" stroke-linecap="round" stroke-width="1.8"/><path d="M90,142 Q85,140 80,138" fill="none" stroke="#fbfdff" stroke-linecap="round" stroke-width="1.4"/><path d="M90,142 Q88,137 84,133" fill="none" stroke="#fbfdff" stroke-linecap="round" stroke-width="1.4"/><path d="M101,137 Q95,133 92,127" fill="none" stroke="#fbfdff" stroke-linecap="round" stroke-width="1.4"/><path d="M101,137 Q102,130 107,126" fill="none" stroke="#fbfdff" stroke-linecap="round" stroke-width="1.4"/><path d="M100,156 Q108,149 114,141" fill="none" stroke="#fbfdff" stroke-linecap="round" stroke-width="1.8"/><path d="M114,141 Q119,136 122,130" fill="none" stroke="#fbfdff" stroke-linecap="round" stroke-width="1.4"/><path d="M114,141 Q121,142 127,138" fill="none" stroke="#fbfdff" stroke-linecap="round" stroke-width="1.4"/></g><g class="cn" style="fill:var(--l0,#a5432a)" stroke="#2b2118" stroke-width="2.5" stroke-linejoin="round" stroke-linecap="round"><circle cx="54" cy="126" r="50"/><circle cx="146" cy="123" r="50"/><circle cx="100" cy="91" r="55"/><circle cx="100" cy="139" r="38"/></g><g class="cn" style="fill:var(--l1,#c9602e)"><circle cx="48" cy="120" r="36"/><circle cx="141" cy="116" r="36"/><circle cx="95" cy="84" r="40"/><circle cx="95" cy="132" r="28"/></g><g class="cn" style="fill:var(--l2,#e9924a)"><circle cx="41" cy="111" r="14"/><circle cx="134" cy="107" r="14"/></g><g class="cn" style="fill:var(--l3,#7a2e1e)"><path d="M50.4,148.4 l6,-9 l5,10z M87.2,164.4 l6,-9 l5,10z M132.0,158.0 l6,-9 l5,10z M156.0,132.4 l5,-8 l4,9z"/></g><g class="gl" fill="#e9924a" stroke="#7a2e1e" stroke-width=".8"><ellipse cx="40" cy="256" rx="6" ry="3.4" transform="rotate(-30 40 256)"/><ellipse cx="150" cy="268" rx="6" ry="3.4" transform="rotate(30 150 268)"/><ellipse cx="176" cy="240" rx="5" ry="3" transform="rotate(10 176 240)"/><ellipse cx="60" cy="290" rx="6" ry="3.4"/></g>
</g>
</svg>