<svg width="300" height="400" xmlns="http://www.w3.org/2000/svg" viewBox="0 0 300 400">
<!-- d_y68_body (움직임용 몸통: 불꽃 없음 — 불꽃은 d_y68_f1·f2.svg) ·  d_y68 캠프파이어 광장 3×3 · footprint y100~400 · 2026-09-20 축척 감사: 흙 원판 없앰 · 통나무 의자 1.5배(사람이 앉는 길이) · 돌 화덕 + 통나무 의자 3 + 장작더미 -->
<defs><style>.o{stroke:#2b2118;stroke-width:2.5;stroke-linejoin:round;stroke-linecap:round}.i{stroke:#2b2118;stroke-width:1.8;stroke-linejoin:round;stroke-linecap:round}</style></defs>

<g transform="translate(86,196) scale(1.25) rotate(-8)"><ellipse cx="0" cy="10" rx="34" ry="8" fill="#000" opacity=".22"/><path class="o" d="M-28,-12 h56 q10,0 10,12 q0,12 -10,12 h-56 q-10,0 -10,-12 q0,-12 10,-12z" fill="#a5743c"/><path d="M-22,-6 h44 M-20,4 h40" fill="none" stroke="#7a5230" stroke-width="2.4" stroke-linecap="round" opacity=".55"/><ellipse class="o" cx="28" cy="0" rx="10" ry="12" fill="#b58a56"/><ellipse class="i" cx="28" cy="0" rx="5" ry="6" fill="#a5743c"/><path d="M26,-3 q4,3 0,6" fill="none" stroke="#7a5230" stroke-width="1.6" stroke-linecap="round"/></g>
<g transform="translate(56,318) scale(1.3) rotate(-20)"><ellipse cx="0" cy="10" rx="34" ry="8" fill="#000" opacity=".22"/><path class="o" d="M-28,-12 h56 q10,0 10,12 q0,12 -10,12 h-56 q-10,0 -10,-12 q0,-12 10,-12z" fill="#a5743c"/><path d="M-22,-6 h44 M-20,4 h40" fill="none" stroke="#7a5230" stroke-width="2.4" stroke-linecap="round" opacity=".55"/><ellipse class="o" cx="28" cy="0" rx="10" ry="12" fill="#b58a56"/><ellipse class="i" cx="28" cy="0" rx="5" ry="6" fill="#a5743c"/><path d="M26,-3 q4,3 0,6" fill="none" stroke="#7a5230" stroke-width="1.6" stroke-linecap="round"/></g>
<g transform="translate(244,318) scale(1.3) rotate(20)"><ellipse cx="0" cy="10" rx="34" ry="8" fill="#000" opacity=".22"/><path class="o" d="M-28,-12 h56 q10,0 10,12 q0,12 -10,12 h-56 q-10,0 -10,-12 q0,-12 10,-12z" fill="#a5743c"/><path d="M-22,-6 h44 M-20,4 h40" fill="none" stroke="#7a5230" stroke-width="2.4" stroke-linecap="round" opacity=".55"/><ellipse class="o" cx="28" cy="0" rx="10" ry="12" fill="#b58a56"/><ellipse class="i" cx="28" cy="0" rx="5" ry="6" fill="#a5743c"/><path d="M26,-3 q4,3 0,6" fill="none" stroke="#7a5230" stroke-width="1.6" stroke-linecap="round"/></g>
<ellipse cx="156" cy="266" rx="80" ry="24" fill="#000" opacity=".16"/><ellipse class="o" cx="141" cy="234" rx="17" ry="12" fill="#8c8578"/>
<ellipse cx="137" cy="231" rx="9" ry="5" fill="#b3ada0" opacity=".85"/>
<ellipse class="o" cx="176" cy="237" rx="17" ry="12" fill="#8c8578"/>
<ellipse cx="172" cy="234" rx="9" ry="5" fill="#b3ada0" opacity=".85"/>
<ellipse class="o" cx="109" cy="242" rx="17" ry="12" fill="#8c8578"/>
<ellipse cx="105" cy="239" rx="9" ry="5" fill="#b3ada0" opacity=".85"/>
<ellipse class="o" cx="202" cy="250" rx="17" ry="12" fill="#8c8578"/>
<ellipse cx="198" cy="247" rx="9" ry="5" fill="#b3ada0" opacity=".85"/>
<ellipse class="o" cx="91" cy="258" rx="17" ry="12" fill="#8c8578"/>
<ellipse cx="87" cy="255" rx="9" ry="5" fill="#b3ada0" opacity=".85"/>
<ellipse class="o" cx="212" cy="268" rx="17" ry="12" fill="#8c8578"/>
<ellipse cx="208" cy="265" rx="9" ry="5" fill="#b3ada0" opacity=".85"/>
<ellipse class="o" cx="91" cy="278" rx="17" ry="12" fill="#8c8578"/>
<ellipse cx="87" cy="275" rx="9" ry="5" fill="#b3ada0" opacity=".85"/>
<ellipse class="o" cx="202" cy="286" rx="17" ry="12" fill="#8c8578"/>
<ellipse cx="198" cy="283" rx="9" ry="5" fill="#b3ada0" opacity=".85"/>
<ellipse class="o" cx="109" cy="294" rx="17" ry="12" fill="#8c8578"/>
<ellipse cx="105" cy="291" rx="9" ry="5" fill="#b3ada0" opacity=".85"/>
<ellipse class="o" cx="176" cy="299" rx="17" ry="12" fill="#8c8578"/>
<ellipse cx="172" cy="296" rx="9" ry="5" fill="#b3ada0" opacity=".85"/>
<ellipse class="o" cx="141" cy="302" rx="17" ry="12" fill="#8c8578"/>
<ellipse cx="137" cy="299" rx="9" ry="5" fill="#b3ada0" opacity=".85"/>
<ellipse cx="150" cy="268" rx="48" ry="24" fill="#2b2118" opacity=".55"/>
<path class="i" d="M112,272 l70,-16 l4,12 l-70,16z" fill="#a5743c"/>
<path class="i" d="M118,254 l64,22 l-4,12 l-64,-22z" fill="#7a5230"/>
<ellipse class="i" cx="124" cy="268" rx="7" ry="8" fill="#b58a56"/>
<ellipse cx="150" cy="262" rx="22" ry="7" fill="#e8892c" opacity=".6"/><ellipse cx="150" cy="261" rx="12" ry="4" fill="#f2c25a" opacity=".7"/>
<ellipse cx="232" cy="196" rx="32" ry="8" fill="#000" opacity=".2"/>
<ellipse class="i" cx="196" cy="190" rx="12" ry="9" fill="#a5743c"/>
<ellipse class="i" cx="196" cy="190" rx="6.5" ry="5" fill="#b58a56"/>
<path d="M193.5,190 h5" fill="none" stroke="#7a5230" stroke-width="1.6" stroke-linecap="round" opacity=".8"/>
<ellipse class="i" cx="220" cy="190" rx="12" ry="9" fill="#a5743c"/>
<ellipse class="i" cx="220" cy="190" rx="6.5" ry="5" fill="#b58a56"/>
<path d="M217.5,190 h5" fill="none" stroke="#7a5230" stroke-width="1.6" stroke-linecap="round" opacity=".8"/>
<ellipse class="i" cx="244" cy="190" rx="12" ry="9" fill="#a5743c"/>
<ellipse class="i" cx="244" cy="190" rx="6.5" ry="5" fill="#b58a56"/>
<path d="M241.5,190 h5" fill="none" stroke="#7a5230" stroke-width="1.6" stroke-linecap="round" opacity=".8"/>
<ellipse class="i" cx="268" cy="190" rx="12" ry="9" fill="#a5743c"/>
<ellipse class="i" cx="268" cy="190" rx="6.5" ry="5" fill="#b58a56"/>
<path d="M265.5,190 h5" fill="none" stroke="#7a5230" stroke-width="1.6" stroke-linecap="round" opacity=".8"/>
<ellipse class="i" cx="208" cy="175" rx="12" ry="9" fill="#a5743c"/>
<ellipse class="i" cx="208" cy="175" rx="6.5" ry="5" fill="#b58a56"/>
<path d="M205.5,175 h5" fill="none" stroke="#7a5230" stroke-width="1.6" stroke-linecap="round" opacity=".8"/>
<ellipse class="i" cx="232" cy="175" rx="12" ry="9" fill="#a5743c"/>
<ellipse class="i" cx="232" cy="175" rx="6.5" ry="5" fill="#b58a56"/>
<path d="M229.5,175 h5" fill="none" stroke="#7a5230" stroke-width="1.6" stroke-linecap="round" opacity=".8"/>
<ellipse class="i" cx="256" cy="175" rx="12" ry="9" fill="#a5743c"/>
<ellipse class="i" cx="256" cy="175" rx="6.5" ry="5" fill="#b58a56"/>
<path d="M253.5,175 h5" fill="none" stroke="#7a5230" stroke-width="1.6" stroke-linecap="round" opacity=".8"/>
<ellipse class="i" cx="220" cy="160" rx="12" ry="9" fill="#a5743c"/>
<ellipse class="i" cx="220" cy="160" rx="6.5" ry="5" fill="#b58a56"/>
<path d="M217.5,160 h5" fill="none" stroke="#7a5230" stroke-width="1.6" stroke-linecap="round" opacity=".8"/>
<ellipse class="i" cx="244" cy="160" rx="12" ry="9" fill="#a5743c"/>
<ellipse class="i" cx="244" cy="160" rx="6.5" ry="5" fill="#b58a56"/>
<path d="M241.5,160 h5" fill="none" stroke="#7a5230" stroke-width="1.6" stroke-linecap="round" opacity=".8"/>
<g transform="translate(22,380) scale(0.6)"><g fill="#4f7a2e" class="i"><path d="M-10,0 l-4,-16 l8,3 l0,13z M-3,0 l0,-24 l6,5 l-2,19z M5,0 l3,-19 l5,7 l-4,12z"/></g><g fill="#86ad50"><path d="M-8,-2 l-1,-9 l2,1z M0,-3 l0,-15 l2,2z"/></g></g><g transform="translate(280,372) scale(0.55)"><g fill="#4f7a2e" class="i"><path d="M-10,0 l-4,-16 l8,3 l0,13z M-3,0 l0,-24 l6,5 l-2,19z M5,0 l3,-19 l5,7 l-4,12z"/></g><g fill="#86ad50"><path d="M-8,-2 l-1,-9 l2,1z M0,-3 l0,-15 l2,2z"/></g></g><g transform="translate(150,396) scale(0.6)"><g fill="#4f7a2e" class="i"><path d="M-10,0 l-4,-16 l8,3 l0,13z M-3,0 l0,-24 l6,5 l-2,19z M5,0 l3,-19 l5,7 l-4,12z"/></g><g fill="#86ad50"><path d="M-8,-2 l-1,-9 l2,1z M0,-3 l0,-15 l2,2z"/></g></g><g transform="translate(40,150) scale(0.5)"><g fill="#4f7a2e" class="i"><path d="M-10,0 l-4,-16 l8,3 l0,13z M-3,0 l0,-24 l6,5 l-2,19z M5,0 l3,-19 l5,7 l-4,12z"/></g><g fill="#86ad50"><path d="M-8,-2 l-1,-9 l2,1z M0,-3 l0,-15 l2,2z"/></g></g><g transform="translate(262,146) scale(0.5)"><g fill="#4f7a2e" class="i"><path d="M-10,0 l-4,-16 l8,3 l0,13z M-3,0 l0,-24 l6,5 l-2,19z M5,0 l3,-19 l5,7 l-4,12z"/></g><g fill="#86ad50"><path d="M-8,-2 l-1,-9 l2,1z M0,-3 l0,-15 l2,2z"/></g></g>
</svg>
