<svg width="100" height="100" xmlns="http://www.w3.org/2000/svg" viewBox="0 0 100 100">
<!-- gift_yarn 작은 선물 — 털실 공(고양이가 굴려 옴). 골드 아님 · 팔 수 없음 · 2026-09-24 -->
<ellipse cx="46" cy="84" rx="26" ry="5" fill="#000" opacity=".18"/><circle cx="46" cy="58" r="24" fill="#e87a9a" stroke="#2b2118" stroke-width="2.5" stroke-linejoin="round" stroke-linecap="round"/><g fill="none" stroke="#c9557a" stroke-width="2.2" stroke-linecap="round"><path d="M26,46 Q46,38 66,52"/><path d="M24,58 Q46,48 70,62"/><path d="M28,70 Q46,62 66,74"/><path d="M38,36 Q30,58 40,80"/><path d="M54,36 Q64,58 56,80"/></g><path d="M34,44 q8,-6 16,-4" stroke="#fbd0dc" stroke-width="3" fill="none" stroke-linecap="round"/><path d="M68,70 Q80,80 74,88 Q86,92 94,82" fill="none" stroke="#2b2118" stroke-width="4.4" stroke-linecap="round"/><path d="M68,70 Q80,80 74,88 Q86,92 94,82" fill="none" stroke="#e87a9a" stroke-width="2.4" stroke-linecap="round"/>
</svg>
