<svg width="100" height="100" xmlns="http://www.w3.org/2000/svg" viewBox="0 0 100 100"><rect width="100" height="100" fill="#7a3f2e"/><rect x="1.5" y="1.5" width="47" height="17" rx="2" fill="#bd7862"/><path d="M5,4 h20" stroke="#d09079" stroke-width="1.2" opacity=".6"/><rect x="51.5" y="1.5" width="47" height="17" rx="2" fill="#9f5e49"/><path d="M55,4 h20" stroke="#d09079" stroke-width="1.2" opacity=".6"/><rect x="101.5" y="1.5" width="47" height="17" rx="2" fill="#9f5e49"/><path d="M105,4 h20" stroke="#d09079" stroke-width="1.2" opacity=".6"/><rect x="-23.5" y="21.5" width="47" height="17" rx="2" fill="#bd7862"/><path d="M-20,24 h20" stroke="#d09079" stroke-width="1.2" opacity=".6"/><rect x="26.5" y="21.5" width="47" height="17" rx="2" fill="#9f5e49"/><path d="M30,24 h20" stroke="#d09079" stroke-width="1.2" opacity=".6"/><rect x="76.5" y="21.5" width="47" height="17" rx="2" fill="#a8654f"/><path d="M80,24 h20" stroke="#d09079" stroke-width="1.2" opacity=".6"/><rect x="1.5" y="41.5" width="47" height="17" rx="2" fill="#9f5e49"/><path d="M5,44 h20" stroke="#d09079" stroke-width="1.2" opacity=".6"/><rect x="51.5" y="41.5" width="47" height="17" rx="2" fill="#b5705a"/><path d="M55,44 h20" stroke="#d09079" stroke-width="1.2" opacity=".6"/><rect x="101.5" y="41.5" width="47" height="17" rx="2" fill="#9f5e49"/><path d="M105,44 h20" stroke="#d09079" stroke-width="1.2" opacity=".6"/><rect x="-23.5" y="61.5" width="47" height="17" rx="2" fill="#bd7862"/><path d="M-20,64 h20" stroke="#d09079" stroke-width="1.2" opacity=".6"/><rect x="26.5" y="61.5" width="47" height="17" rx="2" fill="#a8654f"/><path d="M30,64 h20" stroke="#d09079" stroke-width="1.2" opacity=".6"/><rect x="76.5" y="61.5" width="47" height="17" rx="2" fill="#a8654f"/><path d="M80,64 h20" stroke="#d09079" stroke-width="1.2" opacity=".6"/><rect x="1.5" y="81.5" width="47" height="17" rx="2" fill="#b5705a"/><path d="M5,84 h20" stroke="#d09079" stroke-width="1.2" opacity=".6"/><rect x="51.5" y="81.5" width="47" height="17" rx="2" fill="#bd7862"/><path d="M55,84 h20" stroke="#d09079" stroke-width="1.2" opacity=".6"/><rect x="101.5" y="81.5" width="47" height="17" rx="2" fill="#bd7862"/><path d="M105,84 h20" stroke="#d09079" stroke-width="1.2" opacity=".6"/></svg>