<svg width="100" height="100" xmlns="http://www.w3.org/2000/svg" viewBox="0 0 100 100"><rect width="100" height="100" fill="#8a6a45"/><ellipse cx="75.8" cy="48.8" rx="11.1" ry="4.0" fill="#6b4d2e" opacity="0.565704640720942" transform="rotate(-2 75.8 48.8)"/><ellipse cx="70.8" cy="39.9" rx="15.2" ry="5.1" fill="#6b4d2e" opacity="0.600478870790651" transform="rotate(14 70.8 39.9)"/><ellipse cx="43.1" cy="53.1" rx="14.5" ry="4.8" fill="#6b4d2e" opacity="0.5384037913745711" transform="rotate(18 43.1 53.1)"/><ellipse cx="31.2" cy="74.3" rx="14.5" ry="7.4" fill="#6b4d2e" opacity="0.4838955044564536" transform="rotate(-24 31.2 74.3)"/><ellipse cx="74.0" cy="74.4" rx="12.6" ry="4.4" fill="#6b4d2e" opacity="0.4492905111997336" transform="rotate(8 74.0 74.4)"/><ellipse cx="19.4" cy="15.5" rx="10.5" ry="4.7" fill="#a8845a" opacity="0.7738027513631722" transform="rotate(-1 19.4 15.5)"/><ellipse cx="75.3" cy="26.7" rx="8.9" ry="4.9" fill="#a8845a" opacity="0.7677225130919477" transform="rotate(0 75.3 26.7)"/><ellipse cx="81.6" cy="60.1" rx="7.2" ry="3.9" fill="#a8845a" opacity="0.6072138859089242" transform="rotate(-23 81.6 60.1)"/><ellipse cx="19.3" cy="63.0" rx="2.4" ry="1.7" fill="#8c8578" stroke="#5f5850" stroke-width="1" transform="rotate(-10 19.3 63.0)"/><ellipse cx="18.7" cy="62.5" rx="1.1" ry="0.6" fill="#fff" opacity=".35"/><ellipse cx="27.8" cy="57.8" rx="3.3" ry="2.2" fill="#8c8578" stroke="#5f5850" stroke-width="1" transform="rotate(-25 27.8 57.8)"/><ellipse cx="27.0" cy="57.1" rx="1.4" ry="0.8" fill="#fff" opacity=".35"/><ellipse cx="23.5" cy="61.8" rx="2.8" ry="1.9" fill="#9c968a" stroke="#5f5850" stroke-width="1" transform="rotate(-10 23.5 61.8)"/><ellipse cx="22.8" cy="61.2" rx="1.2" ry="0.7" fill="#fff" opacity=".35"/><ellipse cx="46" cy="34" rx="5" ry="3" fill="#6b4d2e" opacity=".7"/><ellipse cx="58" cy="41" rx="5" ry="3" fill="#6b4d2e" opacity=".7"/></svg>