<svg width="100" height="100" xmlns="http://www.w3.org/2000/svg" viewBox="0 0 100 100"><style>.p{fill:var(--p,#f48fb6)}.pd{fill:var(--pd,#d9699a)}.q{fill:var(--q,#fff6fa)}.qd{fill:var(--qd,#ecd3e0)}.r{fill:var(--r,#f7d968)}.rd{fill:var(--rd,#e0b63c)}#red:target~g{--p:#ee6f6a;--pd:#cf4b4f;--q:#fff1e6;--qd:#ecd2bd;--r:#f7d968;--rd:#e0b63c}#yellow:target~g{--p:#f7d968;--pd:#e0b63c;--q:#ffffff;--qd:#e6e2cf;--r:#f6a05a;--rd:#dc7f3a}#white:target~g{--p:#ffffff;--pd:#dfe3ee;--q:#fbe38a;--qd:#e3c25a;--r:#f7b3cf;--rd:#dd8db0}#violet:target~g{--p:#b79af0;--pd:#9273d6;--q:#ffffff;--qd:#e2dcf2;--r:#f48fb6;--rd:#d9699a}#sunset:target~g{--p:#f6a05a;--pd:#dc7f3a;--q:#f7d968;--qd:#e0b63c;--r:#ee6f6a;--rd:#cf4b4f}</style><defs><g id="a"><path d="M0,10v-8" stroke="#4f8a35" stroke-width="1.7"/><path class="pd" d="M-4.6,-2q-.6,-7 1.4,-9.6l3.2,3.4l3.2,-3.4q2,2.6 1.4,9.6q-1,4.6-4.6,4.6t-4.6,-4.6z"/><path class="p" d="M-2.6,-2.4q-.2,-5.4 2.6,-8.4q2.8,3 2.6,8.4q-.6,3.6-2.6,3.6t-2.6,-3.6z"/></g><g id="b"><path d="M0,10v-8" stroke="#4f8a35" stroke-width="1.7"/><path class="qd" d="M-4.6,-2q-.6,-7 1.4,-9.6l3.2,3.4l3.2,-3.4q2,2.6 1.4,9.6q-1,4.6-4.6,4.6t-4.6,-4.6z"/><path class="q" d="M-2.6,-2.4q-.2,-5.4 2.6,-8.4q2.8,3 2.6,8.4q-.6,3.6-2.6,3.6t-2.6,-3.6z"/></g><g id="c"><path d="M0,10v-8" stroke="#4f8a35" stroke-width="1.7"/><path class="rd" d="M-4.6,-2q-.6,-7 1.4,-9.6l3.2,3.4l3.2,-3.4q2,2.6 1.4,9.6q-1,4.6-4.6,4.6t-4.6,-4.6z"/><path class="r" d="M-2.6,-2.4q-.2,-5.4 2.6,-8.4q2.8,3 2.6,8.4q-.6,3.6-2.6,3.6t-2.6,-3.6z"/></g><path id="l" d="M0,0q-7,-3-8,-13q6,4 8,13zM0,0q7,-3 8,-13q-6,4-8,13z" fill="#7fb64c"/><path id="m" d="M0,0q-3,-8 0,-15q3,7 0,15z" fill="#93c75c"/></defs><g id="red"/><g id="yellow"/><g id="white"/><g id="violet"/><g id="sunset"/><g><rect width="100" height="100" fill="#4e8c35"/><path d="M-25,11q6.25,-6 12.5,0t12.5,0t12.5,0t12.5,0t12.5,0t12.5,0t12.5,0t12.5,0t12.5,0t12.5,0t12.5,0V100H-25z" fill="#4e8c35"/><use href="#b" x="32.6" y="13.5"/><use href="#b" x="6" y="13.5"/><use href="#m" x="13.6" y="13.5"/><use href="#m" x="22.6" y="13.5"/><use href="#m" x="51.4" y="13.5"/><use href="#m" x="61.9" y="13.5"/><use href="#l" x="86" y="13.5"/><path d="M-37.5,27.6q6.25,-6 12.5,0t12.5,0t12.5,0t12.5,0t12.5,0t12.5,0t12.5,0t12.5,0t12.5,0t12.5,0t12.5,0V100H-37.5z" fill="#5a9a3c"/><use href="#a" x="36.1" y="18.1"/><use href="#a" x="19.6" y="20.8"/><use href="#m" x="10.4" y="21.5"/><use href="#a" x="26.9" y="22.5"/><use href="#b" x="81.1" y="24"/><use href="#l" x="44.9" y="29.6"/><use href="#m" x="54.9" y="29.6"/><use href="#m" x="63.5" y="29.6"/><use href="#m" x="74.3" y="29.6"/><path d="M-25,44.2q6.25,-6 12.5,0t12.5,0t12.5,0t12.5,0t12.5,0t12.5,0t12.5,0t12.5,0t12.5,0t12.5,0t12.5,0V100H-25z" fill="#4e8c35"/><use href="#a" x="33.3" y="33.7"/><use href="#a" x="42.7" y="33.9"/><use href="#a" x="25.2" y="34.9"/><use href="#b" x="78.9" y="35.9"/><use href="#a" x="6" y="36.8"/><use href="#b" x="62" y="38.2"/><use href="#b" x="70.9" y="38.8"/><use href="#b" x="88.2" y="38.9"/><use href="#a" x="14.8" y="39.6"/><use href="#l" x="51.3" y="46.2"/><path d="M-37.5,60.8q6.25,-6 12.5,0t12.5,0t12.5,0t12.5,0t12.5,0t12.5,0t12.5,0t12.5,0t12.5,0t12.5,0t12.5,0V100H-37.5z" fill="#5a9a3c"/><use href="#b" x="81.3" y="50.3"/><use href="#b" x="63.6" y="50.5"/><use href="#a" x="18.9" y="52.3"/><use href="#a" x="27" y="53"/><use href="#b" x="47.1" y="53.9"/><use href="#a" x="11.8" y="54.1"/><use href="#b" x="74" y="54.1"/><use href="#b" x="54.4" y="55.4"/><use href="#c" x="36.3" y="55.8"/><use href="#b" x="89.8" y="56"/><path d="M-25,77.4q6.25,-6 12.5,0t12.5,0t12.5,0t12.5,0t12.5,0t12.5,0t12.5,0t12.5,0t12.5,0t12.5,0t12.5,0V100H-25z" fill="#4e8c35"/><use href="#b" x="86.2" y="67.3"/><use href="#m" x="58.1" y="67.8"/><use href="#c" x="49.8" y="68.8"/><use href="#c" x="34.8" y="69.6"/><use href="#m" x="41.5" y="71"/><use href="#b" x="76.1" y="71.8"/><use href="#b" x="69.9" y="72.5"/><use href="#c" x="22.9" y="73.1"/><use href="#l" x="6" y="79.4"/><use href="#l" x="14.5" y="79.4"/><path d="M-37.5,94q6.25,-6 12.5,0t12.5,0t12.5,0t12.5,0t12.5,0t12.5,0t12.5,0t12.5,0t12.5,0t12.5,0t12.5,0V100H-37.5z" fill="#5a9a3c"/><use href="#c" x="48" y="85.2"/><use href="#c" x="28.7" y="85.5"/><use href="#a" x="90.1" y="85.6"/><use href="#c" x="37.9" y="87.1"/><use href="#a" x="83.6" y="87.8"/><use href="#b" x="20.1" y="89.2"/><use href="#c" x="54.1" y="89.5"/><use href="#a" x="74.7" y="89.9"/><use href="#m" x="66.4" y="89.9"/></g></svg>
