<svg xmlns="http://www.w3.org/2000/svg" viewBox="0 0 120 160"><g class="hand-back"><circle cx="19" cy="100" r="8" fill="#2b3f7a" stroke="#2b2118" stroke-width="1.7" stroke-linejoin="round" stroke-linecap="round"/><path d="M13,91 q6,-3 12,0 v5 q-6,3 -12,0z" fill="#1a2850" stroke="#2b2118" stroke-width="1" stroke-opacity=".55" stroke-linejoin="round" stroke-linecap="round"/><circle cx="16.5" cy="98.5" r="1.4" fill="#9ee2ff"/><circle cx="19" cy="98" r="2.4" fill="#9ee2ff" stroke="#2b2118" stroke-width="1" stroke-opacity=".55" stroke-linejoin="round" stroke-linecap="round"/><circle cx="101" cy="100" r="8" fill="#2b3f7a" stroke="#2b2118" stroke-width="1.7" stroke-linejoin="round" stroke-linecap="round"/><path d="M95,91 q6,-3 12,0 v5 q-6,3 -12,0z" fill="#1a2850" stroke="#2b2118" stroke-width="1" stroke-opacity=".55" stroke-linejoin="round" stroke-linecap="round"/><circle cx="98.5" cy="98.5" r="1.4" fill="#9ee2ff"/><circle cx="101" cy="98" r="2.4" fill="#9ee2ff" stroke="#2b2118" stroke-width="1" stroke-opacity=".55" stroke-linejoin="round" stroke-linecap="round"/></g><g class="fingers-front"><rect x="14.0" y="93.9" width="7" height="3.2" rx="1.6" fill="#2b3f7a" stroke="#2b2118" stroke-width="1" stroke-opacity=".55" stroke-linejoin="round" stroke-linecap="round"/><rect x="13.5" y="96.9" width="8" height="3.2" rx="1.6" fill="#2b3f7a" stroke="#2b2118" stroke-width="1" stroke-opacity=".55" stroke-linejoin="round" stroke-linecap="round"/><rect x="13.5" y="99.9" width="8" height="3.2" rx="1.6" fill="#2b3f7a" stroke="#2b2118" stroke-width="1" stroke-opacity=".55" stroke-linejoin="round" stroke-linecap="round"/><rect x="14.0" y="102.9" width="7" height="3.2" rx="1.6" fill="#2b3f7a" stroke="#2b2118" stroke-width="1" stroke-opacity=".55" stroke-linejoin="round" stroke-linecap="round"/><ellipse cx="24" cy="95" rx="3.2" ry="2.2" fill="#2b3f7a" stroke="#2b2118" stroke-width="1" stroke-opacity=".55" stroke-linejoin="round" stroke-linecap="round" transform="rotate(30 24 95)"/><rect x="99.0" y="93.9" width="7" height="3.2" rx="1.6" fill="#2b3f7a" stroke="#2b2118" stroke-width="1" stroke-opacity=".55" stroke-linejoin="round" stroke-linecap="round"/><rect x="98.5" y="96.9" width="8" height="3.2" rx="1.6" fill="#2b3f7a" stroke="#2b2118" stroke-width="1" stroke-opacity=".55" stroke-linejoin="round" stroke-linecap="round"/><rect x="98.5" y="99.9" width="8" height="3.2" rx="1.6" fill="#2b3f7a" stroke="#2b2118" stroke-width="1" stroke-opacity=".55" stroke-linejoin="round" stroke-linecap="round"/><rect x="99.0" y="102.9" width="7" height="3.2" rx="1.6" fill="#2b3f7a" stroke="#2b2118" stroke-width="1" stroke-opacity=".55" stroke-linejoin="round" stroke-linecap="round"/><ellipse cx="96" cy="95" rx="3.2" ry="2.2" fill="#2b3f7a" stroke="#2b2118" stroke-width="1" stroke-opacity=".55" stroke-linejoin="round" stroke-linecap="round" transform="rotate(-30 96 95)"/></g></svg>